<svg version="1.0" xmlns="http://www.w3.org/2000/svg" width="298px" height="95px" viewBox="0 0 298 95" preserveAspectRatio="xMidYMid meet">
 <g fill="black">
  <path d="M0 47.5 l0 -47.5 149 0 149 0 0 47.5 0 47.5 -149 0 -149 0 0 -47.5z m41 25.8 c0 -0.5 -0.5 -1.5 -1 -2.3 -0.8 -1.2 -1 -1.1 -1 0.8 0 1.2 0.5 2.2 1 2.2 0.6 0 1 -0.3 1 -0.7z m3.8 -21.4 c-2.1 -1.4 -2.8 -1.1 -2.8 1.1 0 1.1 0.7 2 1.5 2 0.8 0 1.6 0.6 1.6 1.3 0.1 0.6 0.4 0.1 0.6 -1.2 0.3 -1.3 -0.1 -2.7 -0.9 -3.2z m-37.5 -17.1 c0.3 -1.8 0.8 -4.2 1.1 -5.3 0.4 -1.1 0 -0.6 -0.8 1 -2.1 4.7 -2.8 7.5 -1.8 7.5 0.5 0 1.2 -1.5 1.5 -3.2z m65.2 -18.9 l-4 -4 -0.3 3.5 -0.3 3.6 -27.2 0.3 -27.2 0.2 31.5 0.3 31.4 0.2 -3.9 -4.1z m-18.1 -10.6 c-5 -1.5 -15 -1.5 -19.1 0 -2.8 1 -1.4 1.2 9.9 1.2 11.5 0 12.6 -0.1 9.2 -1.2z"/>
 </g>
 <g fill="#006d00">
  <path d="M36.5 88.3 c-1.1 -0.2 -3.5 -0.9 -5.4 -1.5 l-3.4 -1.1 2.4 -1.3 c2.3 -1.2 4.5 -1 12.7 1.2 0.6 0.2 1.2 1 1.2 1.9 0 1.5 -3 1.8 -7.5 0.8z"/>
  <path d="M46.3 84.5 c0 -2.7 0.2 -3.8 0.4 -2.2 0.2 1.5 0.2 3.7 0 5 -0.2 1.2 -0.4 0 -0.4 -2.8z"/>
  <path d="M21.8 82.5 c-2 -1.3 -3.9 -2.9 -4.3 -3.5 -1.1 -1.8 4.3 -1.1 9 1.2 4.4 2.2 4.5 2.2 2.3 3.5 -2.9 1.6 -2.6 1.6 -7 -1.2z"/>
  <path d="M35 82.7 c-1.4 -0.7 -2.6 -2 -2.8 -2.9 -0.3 -1.5 0.1 -1.6 3 -0.7 1.8 0.5 4.5 0.9 6 0.9 2.1 0 2.8 0.5 2.8 2 0 1.6 -0.7 2 -3.2 2 -1.8 0 -4.4 -0.6 -5.8 -1.3z"/>
  <path d="M25.8 78.9 c-2.8 -1.4 -3.8 -2.6 -3.8 -4.4 l0 -2.4 4.5 3 c2.5 1.7 4.5 3.7 4.5 4.5 0 1.8 -0.7 1.7 -5.2 -0.7z"/>
  <path d="M10.9 72.9 l-3.3 -4.2 2.9 0.7 c1.7 0.4 4.6 2.2 6.5 3.9 l3.5 3.2 -3.2 -3.5 c-3 -3.3 -4.2 -6.8 -2.7 -8.3 0.3 -0.3 1.9 1 3.6 2.8 4 4.7 3.7 8.9 -0.8 9.3 -2.7 0.3 -3.7 -0.3 -6.5 -3.9z"/>
  <path d="M33 76 c0 -1.1 1.4 -1.1 5 0 2.2 0.7 2.1 0.8 -1.2 0.9 -2.1 0.1 -3.8 -0.3 -3.8 -0.9z"/>
  <path d="M9.2 68.2 c-1.6 -0.3 -3 -1.7 -4.3 -4.5 -2.3 -5.2 -2.4 -6.9 -0.2 -6.5 1 0.2 2.8 2.5 4 5.1 2.8 5.8 3.9 6.3 1.3 0.5 -1.3 -2.9 -1.6 -4.7 -0.9 -5.9 1.3 -2.5 1.1 -3.3 -0.5 -2 -1.1 1 -1.5 0.8 -1.9 -0.6 -0.4 -1.7 -0.5 -1.7 -0.6 0 -0.1 1.9 -0.9 2.1 -3 0.8 -0.9 -0.6 -1.6 -3.3 -1.9 -7.3 -0.4 -6 -0.3 -6.2 1.3 -4.6 1 0.9 2.1 3.4 2.5 5.5 l0.8 3.8 0.1 -3.5 c0.1 -3.4 1.5 -6 3.3 -6 0.4 0 0.8 2.2 0.8 4.9 0 2.6 0.9 7.1 2.1 9.8 1.8 4.4 1.9 5.3 0.7 7.9 -1 2.2 -1.9 2.9 -3.6 2.6z"/>
  <path d="M100 64.5 c-0.8 -1 -1 -2.7 -0.5 -5.2 0.6 -3.2 0.9 -3.5 1.5 -1.8 0.5 1.1 0.9 3.1 0.9 4.3 0.2 4.1 2.6 1.8 2.9 -2.7 0.2 -2.3 0.7 -3.9 1.3 -3.6 1 0.7 1.2 6.5 0.3 8.9 -0.8 2 -4.8 2.1 -6.4 0.1z"/>
  <path d="M108 61.1 c0 -6 1.4 -7.2 3.5 -3.1 1.9 3.6 2.1 3.7 2 0.8 0 -4.7 2 -2.6 2.3 2.2 0.4 5.8 -1.5 6.9 -3.8 2.3 l-1.4 -2.8 -0.4 2.8 c-0.6 4.6 -2.2 3 -2.2 -2.2z"/>
  <path d="M117 61 c0 -2.7 0.5 -5 1 -5 0.6 0 1 2.3 1 5 0 2.8 -0.4 5 -1 5 -0.5 0 -1 -2.2 -1 -5z"/>
  <path d="M122 63.5 c-1.8 -4.7 -2.2 -7.5 -1.2 -7.5 0.6 0 1.5 1.2 2 2.8 l1 2.7 1.2 -3.2 c1.1 -3 3 -4.5 3 -2.5 0 2.1 -3.3 10.2 -4.1 10.2 -0.5 0 -1.4 -1.1 -1.9 -2.5z"/>
  <path d="M129 60.4 l0 -5.5 3.3 0.3 c3.6 0.3 4 2 0.5 3 l-2.3 0.6 2.3 0.1 c2.8 0.1 3 3.1 0.2 3.1 -1.1 0 -2 0.5 -2 1 0 0.6 1.1 1 2.5 1 1.4 0 2.5 0.5 2.5 1 0 0.6 -1.6 1 -3.5 1 l-3.5 0 0 -5.6z"/>
  <path d="M137 60.5 c0 -5 0.2 -5.5 2.3 -5.5 3.6 0 5 1.5 4.4 4.6 -0.3 1.6 -0.1 3.7 0.4 4.6 0.7 1.3 0.6 1.8 -0.5 1.8 -0.8 0 -1.8 -0.9 -2.1 -2 -0.3 -1.1 -1.1 -2 -1.6 -2 -0.5 0 -0.9 0.9 -0.9 2 0 1.1 -0.4 2 -1 2 -0.5 0 -1 -2.5 -1 -5.5z m4.8 -1.6 c-0.2 -0.6 -0.8 -1 -1.3 -1 -0.5 0 -1.1 0.4 -1.3 1 -0.2 0.6 0.4 1.1 1.3 1.1 0.9 0 1.5 -0.5 1.3 -1.1z"/>
  <path d="M146 64.5 c-1.6 -1.9 -0.5 -3.4 1.2 -1.7 1.4 1.4 2.8 1.6 2.8 0.3 0 -0.5 -0.9 -1.3 -2.1 -1.6 -3.1 -1 -2.3 -6 1.1 -6 1.7 0 2.6 0.6 2.8 2 0.3 1.6 0.1 1.8 -0.9 0.8 -1.5 -1.5 -2.9 -1.7 -2.9 -0.4 0 0.5 0.9 1.2 1.9 1.6 3.9 1.2 3.6 6.5 -0.4 6.5 -1.2 0 -2.8 -0.7 -3.5 -1.5z"/>
  <path d="M154 61 c0 -2.7 0.5 -5 1 -5 0.6 0 1 2.3 1 5 0 2.8 -0.4 5 -1 5 -0.5 0 -1 -2.2 -1 -5z"/>
  <path d="M159 61.5 c0 -2.9 -0.4 -4.5 -1.2 -4.6 -1.4 -0.1 2.9 -1.6 5 -1.8 0.6 -0.1 1.2 0.6 1.2 1.4 0 0.8 -0.7 1.5 -1.5 1.5 -1.1 0 -1.5 1.1 -1.5 4 0 2.2 -0.4 4 -1 4 -0.5 0 -1 -2 -1 -4.5z"/>
  <path d="M165 60.4 l0 -5.5 3.3 0.3 c3.6 0.3 4 2 0.5 3 l-2.3 0.6 2.3 0.1 c2.8 0.1 3 3.1 0.2 3.1 -1.1 0 -2 0.5 -2 1 0 0.6 1.1 1 2.5 1 1.4 0 2.5 0.5 2.5 1 0 0.6 -1.6 1 -3.5 1 l-3.5 0 0 -5.6z"/>
  <path d="M176.5 64.8 c-0.2 -0.7 -0.3 -2.7 -0.2 -4.5 0.5 -7.4 5.5 -6.5 5.3 0.9 -0.1 3.7 -0.4 4.3 -2.4 4.6 -1.2 0.2 -2.4 -0.3 -2.7 -1z"/>
  <path d="M186.4 64.7 c-0.3 -0.8 -0.4 -3.2 -0.2 -5.3 0.3 -4.5 2.8 -5.4 3.9 -1.4 l0.6 2.5 1.1 -2.7 c1.8 -4.5 3.2 -3.3 3.2 2.7 0 5.3 -1.3 7.4 -2.3 3.8 -0.4 -1.7 -0.5 -1.7 -0.6 0 -0.1 1.8 -2.1 2.4 -2.1 0.6 0 -0.8 -0.5 -0.8 -1.5 0.1 -1.2 1 -1.6 0.9 -2.1 -0.3z"/>
  <path d="M196.6 63.8 c0.3 -1.3 1.3 -3.8 2 -5.7 1.7 -4 2.7 -3.5 4.8 2.4 l1.5 4 0 -4.2 c0.1 -4.3 1.4 -5.7 2.5 -2.7 0.3 0.9 0.6 3.1 0.6 5 0 2.7 -0.4 3.4 -2 3.4 -1.1 0 -2.9 -0.6 -4 -1.2 -1.5 -1 -2.2 -1 -3.2 0 -1.9 1.9 -3 1.4 -2.2 -1z"/>
  <path d="M215 62.5 c0 -2.9 -0.3 -3.3 -1.7 -2.8 -1.7 0.7 -1.7 0.5 -0.2 -1.7 2.8 -4.3 3.9 -3.6 3.9 2.4 0 3.1 -0.4 5.6 -1 5.6 -0.5 0 -1 -1.6 -1 -3.5z"/>
  <path d="M219.7 65.3 c-1.5 -1.4 -0.6 -2.4 1.6 -1.9 l2.2 0.6 -2.2 -1.1 c-2.8 -1.5 -3.2 -6.4 -0.6 -7.3 2 -0.8 4.3 1.7 4.3 4.8 0 1.6 0.6 1.2 2.2 -1.6 2.6 -4.6 3.8 -4.8 3.8 -0.9 0 1.6 0.2 3.5 0.5 4.3 0.7 1.8 -1.5 4.8 -2.2 3.1 -0.6 -1.5 -4.9 -1.7 -5.8 -0.3 -0.7 1.1 -2.8 1.3 -3.8 0.3z m2.5 -7.5 c-0.9 -0.9 -1.2 -0.7 -1.2 1.2 0 1.9 0.3 2.1 1.2 1.2 0.9 -0.9 0.9 -1.5 0 -2.4z"/>
  <path d="M233.7 65.3 c-1.4 -1.3 -0.6 -2.4 1.3 -1.8 1.2 0.4 2 0.2 2 -0.5 0 -0.7 -0.9 -1.4 -2.1 -1.7 -2.9 -0.8 -2.3 -5.7 0.9 -6.1 2.7 -0.4 3.1 2.4 0.5 3.1 -1.6 0.4 -1.6 0.5 -0.1 0.6 2.2 0.1 3.3 3.8 1.8 5.6 -1.3 1.6 -3.2 1.9 -4.3 0.8z"/>
  <path d="M244.2 64.8 c-1.7 -1.7 -1.5 -6.3 0.4 -8.2 2 -2 3.8 -2 5.4 -0.1 1.6 2 0.5 3.2 -1.4 1.6 -2 -1.7 -3.6 -0.6 -3.6 2.5 0 2.5 2.5 4.3 3.8 2.9 0.4 -0.4 0.1 -1 -0.5 -1.2 -2.1 -0.7 -1.5 -2.3 0.8 -2.3 1.6 0 2 0.5 1.7 2.8 -0.2 2 -0.9 2.8 -2.8 3 -1.4 0.2 -3.1 -0.3 -3.8 -1z"/>
  <path d="M253.7 65.3 c-1.1 -1 -0.8 -9.3 0.3 -9.3 0.6 0 1 1.8 1 4 0 2.9 0.4 4 1.5 4 1.1 0 1.5 -1.1 1.5 -4 0 -2.2 0.5 -4 1 -4 1.1 0 1.4 5.9 0.4 8.4 -0.6 1.6 -4.5 2.2 -5.7 0.9z"/>
  <path d="M261.4 62.8 c0.2 -1.8 0.4 -4.1 0.5 -5 0.1 -1.4 0.9 -1.8 3.4 -1.7 2.7 0.1 2.9 0.2 0.9 0.7 -3 0.9 -3.3 2.6 -0.4 3 2.7 0.4 2.9 2.2 0.2 2.2 -1.1 0 -2 0.5 -2 1 0 0.6 1.1 1 2.5 1 1.4 0 2.5 0.5 2.5 1 0 0.6 -1.8 1 -4 1 -3.9 0 -4 -0.1 -3.6 -3.2z"/>
  <path d="M270 61 c0 -2.7 0.5 -5 1 -5 0.6 0 1 1.8 1 4 0 3.3 0.3 4 2 4 1.1 0 2 0.5 2 1 0 0.6 -1.3 1 -3 1 -2.9 0 -3 -0.1 -3 -5z"/>
  <path d="M277 61.2 c0 -2.7 0.3 -5.2 0.7 -5.5 1 -1.1 3.3 1.4 3.4 3.7 0.1 1.4 0.4 1.1 1 -1.2 1.4 -4.8 3.3 -3.4 3.7 2.6 0.3 5.4 -1.3 7.3 -2.1 2.5 l-0.4 -2.8 -0.2 2.8 c0 1.6 -0.7 2.7 -1.5 2.7 -0.8 0 -1.7 -1.2 -1.9 -2.7 l-0.4 -2.8 -0.2 2.8 c-0.2 4.7 -2.1 2.9 -2.1 -2.1z"/>
  <path d="M287 65.1 c0 -0.4 0.5 -2.3 1.1 -4.2 0.6 -1.9 1.3 -4 1.5 -4.8 0.7 -2.2 2.9 0.4 4.3 5 0.7 2.2 0.9 4.4 0.5 4.7 -0.4 0.4 -0.9 0.1 -1.1 -0.5 -0.5 -1.5 -4.3 -1.7 -4.3 -0.3 0 0.6 -0.4 1 -1 1 -0.5 0 -1 -0.4 -1 -0.9z"/>
  <path d="M192.5 49.9 c-0.4 -0.5 -0.4 -1.3 -0.1 -1.8 0.3 -0.4 -0.3 -1.6 -1.4 -2.6 -2.5 -2.2 -2.7 -9.1 -0.4 -12.3 2.4 -3.4 3.2 -2.6 3 3.1 -0.1 4.7 0.1 5.2 2.2 5.5 2.3 0.3 3.3 -2.3 1.1 -3 -1.6 -0.5 0.1 -5.7 2.3 -6.9 1.1 -0.6 2.6 -0.8 3.4 -0.5 2.1 0.8 1.7 3.6 -0.6 3.6 -2.4 0 -2.5 0.8 -0.5 3.4 2.9 3.8 1.3 8.6 -2.8 8.6 -1.6 0 -1.7 0.3 -0.7 1.5 0.7 0.8 1.1 1.6 0.9 1.6 -2.2 0.7 -6 0.6 -6.4 -0.2z"/>
  <path d="M286.5 45 c-0.8 -1.3 0.4 -3.2 1.6 -2.5 1.2 0.8 1.2 3.5 0 3.5 -0.6 0 -1.3 -0.4 -1.6 -1z"/>
  <path d="M2.6 41.6 c-1.4 -2.2 -1.4 -3 -0.1 -8.1 1.6 -5.9 3.5 -10.2 6.7 -14.7 l1.9 -2.8 27 0 c15.4 0 26.8 -0.4 26.5 -0.9 -0.3 -0.5 -2.7 -1.9 -5.3 -3.2 -6.8 -3.3 -21.8 -3.4 -28 -0.1 -3.1 1.6 -5.9 2.2 -10.8 2.2 -3.6 0 -6.5 -0.3 -6.5 -0.7 0 -1.4 9.5 -7.3 15.6 -9.8 11.6 -4.8 29.3 -2.8 40 4.5 4.9 3.4 12.4 11.7 12.4 13.6 0 1.1 -3.1 1.4 -15.8 1.4 l-15.8 0 0.1 2.7 c0 3.1 -2.6 4.3 -5 2.3 -1.1 -0.9 -1.2 -1.7 -0.4 -3.1 0.9 -1.8 0.4 -1.9 -14 -1.9 l-15 0 -2.5 5.3 c-1.4 2.8 -2.9 6.8 -3.3 8.7 -0.6 3 -3.6 6.9 -5.4 7 -0.4 0 -1.4 -1.1 -2.3 -2.4z"/>
  <path d="M100 37.9 c-1.6 -2.9 -0.2 -7.8 2.6 -9.1 1.3 -0.6 2.1 -1.5 1.8 -2 -0.3 -0.5 -1.1 -0.4 -1.9 0.2 -0.9 0.8 -1.4 0.7 -1.8 -0.4 -0.7 -1.9 0.6 -2.8 2.7 -2 0.9 0.3 1.6 0.1 1.6 -0.6 0 -0.6 0.5 -0.8 1.1 -0.4 0.6 0.3 0.9 1.5 0.6 2.5 -0.3 1.1 -0.1 1.9 0.4 1.9 0.5 0 0.9 1.6 0.9 3.5 0 1.9 0.5 3.5 1 3.5 0.6 0 1 -0.8 1 -1.8 0 -2.6 3.2 -5.2 6.3 -5.2 2.4 0 2.7 0.4 2.9 3.8 0.1 2.6 0.3 1.9 0.7 -2.3 0.5 -5.1 0.9 -6 2.6 -6 1.8 0 2 0.7 2.1 6 0 6.3 -1.6 10.5 -4.1 10.5 -0.8 0 -1.5 -0.7 -1.5 -1.6 0 -1.4 -0.1 -1.4 -1.6 0 -1.8 1.9 -9.4 2.2 -9.4 0.4 0 -0.9 -0.3 -0.9 -1.2 0 -1.9 1.9 -5.6 1.4 -6.8 -0.9z m15 -4.4 c0 -0.8 -0.4 -1.5 -1 -1.5 -0.5 0 -1 0.7 -1 1.5 0 0.8 0.5 1.5 1 1.5 0.6 0 1 -0.7 1 -1.5z"/>
  <path d="M127.3 37.3 c-0.5 -1.6 -0.9 -5.3 -0.9 -8.3 0.1 -4.8 0.4 -5.5 2.1 -5.5 1.7 0 2 0.7 2.1 5.5 0.1 5.3 0.2 5.5 3 5.8 l2.9 0.3 -2.2 -1.6 c-2.6 -1.9 -3 -4.3 -0.8 -5.1 0.9 -0.4 1.4 -1.3 1.3 -2.2 -0.2 -1.2 0.6 -1.6 3 -1.8 2.9 -0.1 3.3 0.1 2.9 1.7 -0.3 1.1 -0.1 1.9 0.4 1.9 1.3 0 1.1 9.4 -0.3 10.8 -0.7 0.7 -3.8 1.2 -6.9 1.2 -5.3 0 -5.7 -0.2 -6.6 -2.7z"/>
  <path d="M149 33.5 c0 -3.7 -0.4 -6.5 -1 -6.5 -1.6 0 -1.1 -2.7 0.6 -3.4 0.9 -0.3 1.8 -0.6 2 -0.6 0.2 0 0.4 3.8 0.4 8.5 0 5 -0.4 8.5 -1 8.5 -0.6 0 -1 -2.8 -1 -6.5z"/>
  <path d="M156 39.1 c0 -0.5 0.4 -2.1 0.9 -3.4 0.8 -2.1 0.6 -2.6 -1 -3 -1.4 -0.4 -1.9 -1.4 -1.9 -3.9 0 -5.7 3.7 -7.7 6.5 -3.5 1.4 2.2 1.3 2.9 -0.3 8.2 -0.9 3.2 -2.3 6 -3 6.3 -0.6 0.2 -1.2 -0.1 -1.2 -0.7z m2.8 -10.8 c-0.4 -2.2 -2.2 -2 -2.6 0.1 -0.2 1 0.3 1.6 1.3 1.6 1 0 1.5 -0.7 1.3 -1.7z"/>
  <path d="M169 39 c0 -0.5 -1.1 -1 -2.4 -1 -1.4 0 -2.7 -0.4 -3 -0.9 -0.7 -1 3 -12.1 4.4 -13.5 1.9 -1.9 2.2 0.4 0.6 5 -1.9 5.6 -1.9 5.4 -0.6 5.4 0.6 0 1 -0.9 1 -2.1 0 -2.9 2.2 -1.9 3.1 1.4 0.9 3.4 0.1 6.7 -1.7 6.7 -0.8 0 -1.4 -0.4 -1.4 -1z"/>
  <path d="M175.7 39.4 c-1 -1.1 -0.9 -4.4 0.2 -4.4 0.5 0 1.1 0.5 1.3 1.2 0.6 1.8 2.8 -0.1 2.8 -2.4 0 -1.7 -0.4 -1.9 -2.5 -1.4 -2.4 0.6 -2.5 0.5 -2.5 -4.4 l0 -5 3.5 0 c2.4 0 3.5 0.5 3.5 1.5 0 0.9 -0.9 1.5 -2.5 1.5 -3.2 0 -3.4 2.7 -0.2 3.2 1.9 0.3 2.2 0.9 2.2 5.3 0 4.6 -0.2 5 -2.5 5.3 -1.4 0.2 -2.9 0 -3.3 -0.4z"/>
  <path d="M207 38.1 c-0.5 -1.1 -1 -4.9 -1 -8.5 0 -5.9 0.2 -6.6 2 -6.6 1.8 0 2 0.7 2 6 0 3.3 0.4 6 1 6 0.6 0 1 -0.7 1 -1.5 0 -2.3 3.7 -5.5 6.5 -5.5 2.3 0 2.5 0.4 2.5 4.1 0 6.6 -1.2 7.9 -7.5 7.9 -4.3 0 -5.6 -0.4 -6.5 -1.9z"/>
  <path d="M227.2 38.8 c-1.5 -1.5 -1.6 -5.4 -0.2 -6.3 0.7 -0.4 0.6 -1.3 -0.1 -2.7 -0.8 -1.5 -0.8 -2.7 0 -4.4 2.1 -4.7 7.8 -1.9 6.8 3.3 -0.3 1.5 -0.2 3.6 0.3 4.7 1.2 3.2 -0.5 6.6 -3.3 6.6 -1.3 0 -2.8 -0.5 -3.5 -1.2z m4.6 -3.5 c-0.5 -2.5 -2.8 -2.8 -2.8 -0.4 0 1.2 0.6 2.1 1.6 2.1 0.9 0 1.4 -0.7 1.2 -1.7z m-0.3 -7.3 c0 -0.7 -0.6 -1.5 -1.2 -1.7 -0.8 -0.3 -1.3 0.4 -1.3 1.7 0 1.3 0.5 2 1.3 1.8 0.6 -0.3 1.2 -1.1 1.2 -1.8z"/>
  <path d="M242 37.9 c-1.6 -2.9 -0.2 -7.8 2.6 -9.1 1.3 -0.6 2.1 -1.5 1.8 -2 -0.3 -0.5 -1.1 -0.4 -1.9 0.2 -0.9 0.8 -1.4 0.7 -1.8 -0.4 -0.7 -1.9 0.6 -2.8 2.7 -2 0.9 0.3 1.6 0.1 1.6 -0.6 0 -0.6 0.5 -0.8 1.1 -0.4 0.6 0.3 0.9 1.5 0.6 2.5 -0.3 1.1 -0.1 1.9 0.4 1.9 0.5 0 0.9 1.6 0.9 3.5 0 2.8 0.4 3.5 2 3.5 1.7 0 1.8 -0.3 0.9 -1.9 -2 -3.1 -0.4 -5.1 4 -5.1 6 0 10 5.3 4.9 6.3 -1.7 0.3 -1.4 0.5 1 0.6 2.2 0.1 3.2 -0.3 3.2 -1.4 0 -2.3 3.7 -5.5 6.5 -5.5 2.3 0 2.5 0.4 2.5 4.1 0 7 -1 7.9 -9.4 7.9 -5.6 0 -7.5 -0.4 -8 -1.5 -0.4 -1.3 -0.9 -1.2 -3.6 0.3 -2.5 1.4 -3.2 1.5 -3.9 0.3 -0.6 -0.9 -1.1 -1 -1.5 -0.2 -1.2 1.9 -5.4 1.3 -6.6 -1z"/>
  <path d="M278.2 38.8 c-0.7 -0.7 -1.2 -4.2 -1.2 -8.5 0 -6.6 0.2 -7.3 2 -7.3 1.8 0 2 0.7 2 6 l0 6 4 0 c4.7 0 5.8 -2.7 1.3 -3.2 -3.9 -0.4 -3.7 -3.2 0.3 -3.6 3.5 -0.3 6.4 1.8 6.4 4.9 0 1 0.7 1.9 1.5 1.9 1.9 0 1.9 1.4 -0.1 3.4 -1.9 2 -14.4 2.2 -16.2 0.4z"/>
 </g>
 <g fill="#f60500">
  <path d="M46 84.6 l0 -4.3 4.9 -0.6 c6.1 -0.7 12.6 -3.8 17.9 -8.3 4.5 -3.8 11.2 -16 11.2 -20.3 0 -5.7 0.9 -6.9 5.1 -6.9 3.9 -0.1 3.9 -0.1 3.9 3.9 0 2.5 -0.5 4.2 -1.4 4.5 -2 0.8 -3.9 6.4 -2.6 7.9 1.3 1.6 -3.3 10 -5.4 9.9 -1.8 -0.2 -6 5.1 -5.2 6.5 0.9 1.3 -8.6 7.3 -9.7 6.2 -1.2 -1.2 -7.7 1.8 -7.7 3.5 0 0.6 -1.7 1.4 -3.7 1.8 -7.1 1.1 -7.3 1 -7.3 -3.8z m15.8 -3.8 c11.9 -5.9 21.3 -18.3 22.7 -30 l0.5 -4.3 -1.5 5 c-5.1 16.6 -13.3 25.7 -28.4 31.2 -3.7 1.4 -5.1 2.2 -3.2 1.9 1.8 -0.3 6.3 -2.1 9.9 -3.8z"/>
  <path d="M52.2 76 c1.4 -0.4 3.1 -1.1 3.7 -1.5 0.6 -0.3 1.1 0.1 1.1 0.9 0 1.2 -1 1.6 -3.7 1.5 -3.5 -0.1 -3.6 -0.1 -1.1 -0.9z"/>
  <path d="M65 34.5 l0 -8.5 3 0 3 0 0 6 0 6 7.5 0 c7.4 0 8.1 -0.3 6.9 -3.3 -0.5 -1.3 -0.9 -1.3 -3.4 0.1 -2.3 1.3 -3.3 1.4 -5.4 0.4 -1.5 -0.7 -2.6 -2 -2.6 -3.1 0 -2.7 6.2 -7.3 9.2 -6.9 3.1 0.4 6.8 7.8 6.8 13.4 l0 4.2 -12.5 0.1 -12.5 0.1 0 -8.5z m17.4 -4.6 c-0.7 -1.2 -4.4 -1.2 -4.4 0 0 0.5 0.6 1.1 1.3 1.4 1.7 0.6 3.8 -0.3 3.1 -1.4z"/>
 </g>
 <g fill="#8a8e05">
  <path d="M33 75 c0 -1 0.8 -2.3 1.7 -2.8 1.5 -0.9 1.3 -1.4 -1.5 -4.6 -1.8 -2 -3.2 -4.6 -3.2 -5.8 0 -1.2 1.9 -4 4.5 -6.4 l4.4 -4.3 -3.1 -5.5 -3.2 -5.5 -3.4 3 c-4.2 3.7 -5.6 3 -1.8 -1 2.1 -2.2 2.6 -3.4 2 -5.5 -0.4 -1.6 -0.1 -3.2 0.6 -4.1 1.7 -2.1 3 -1.9 3 0.4 0 2.7 3.2 1.7 5.9 -2 2.1 -2.8 4.1 -3.8 4.1 -2 0 0.5 -1.6 2.5 -3.5 4.4 -1.9 1.9 -3.5 3.9 -3.5 4.4 0 0.5 1.3 3 3 5.6 2.1 3.4 3.6 4.7 5.3 4.7 4 0 6.1 2.3 5.4 5.9 -0.5 2.5 -0.1 4.1 1.8 6.9 2.6 3.9 3.2 6.7 1.5 7.7 -2 1.2 -1 3.5 1.5 3.5 2 0 2.5 0.5 2.5 2.5 l0 2.5 -12 0 c-11.2 0 -12 -0.1 -12 -2z m12.9 -7.7 c0.1 -0.7 -0.5 -1 -1.2 -0.7 -2.1 0.8 -4.3 -2.4 -3 -4.4 0.5 -0.9 0.8 -2.3 0.6 -2.9 -0.7 -2 -3.1 -1.5 -4.3 0.7 -0.9 1.7 -0.5 2.6 2.5 5.7 1.9 2 3.5 4.6 3.6 5.7 0.1 1.9 0.2 1.8 0.9 -0.4 0.4 -1.4 0.8 -3 0.9 -3.7z"/>
 </g>
 <g fill="#60a460">
 </g>
</svg>